<svg width="17" height="17" viewBox="0 0 17 17" fill="none" xmlns="http://www.w3.org/2000/svg">
<path d="M8.4668 16.9336C7.31022 16.9336 6.22005 16.7122 5.19629 16.2695C4.17806 15.8268 3.27881 15.2153 2.49854 14.4351C1.71826 13.6548 1.10677 12.7555 0.664062 11.7373C0.221354 10.7135 0 9.62337 0 8.4668C0 7.31022 0.221354 6.22282 0.664062 5.20459C1.10677 4.18083 1.71549 3.27881 2.49023 2.49854C3.27051 1.71826 4.16976 1.10677 5.18799 0.664062C6.21175 0.221354 7.30192 0 8.4585 0C9.61507 0 10.7052 0.221354 11.729 0.664062C12.7528 1.10677 13.6548 1.71826 14.4351 2.49854C15.2153 3.27881 15.8268 4.18083 16.2695 5.20459C16.7122 6.22282 16.9336 7.31022 16.9336 8.4668C16.9336 9.62337 16.7122 10.7135 16.2695 11.7373C15.8268 12.7555 15.2153 13.6548 14.4351 14.4351C13.6548 15.2153 12.7528 15.8268 11.729 16.2695C10.7108 16.7122 9.62337 16.9336 8.4668 16.9336ZM5.67773 11.9531C5.87695 11.9531 6.04574 11.8867 6.18408 11.7539L8.4751 9.44629L10.7744 11.7539C10.9017 11.8867 11.0649 11.9531 11.2642 11.9531C11.4578 11.9531 11.6211 11.8867 11.7539 11.7539C11.8867 11.6156 11.9531 11.4523 11.9531 11.2642C11.9531 11.0594 11.8867 10.8962 11.7539 10.7744L9.44629 8.4751L11.7622 6.16748C11.895 6.02913 11.9614 5.86589 11.9614 5.67773C11.9614 5.48958 11.895 5.3291 11.7622 5.19629C11.6294 5.06348 11.4689 4.99707 11.2808 4.99707C11.0981 4.99707 10.9404 5.06348 10.8076 5.19629L8.4751 7.51221L6.15918 5.20459C6.02083 5.07731 5.86035 5.01367 5.67773 5.01367C5.48958 5.01367 5.3291 5.08008 5.19629 5.21289C5.06348 5.34017 4.99707 5.50065 4.99707 5.69434C4.99707 5.87695 5.06348 6.03743 5.19629 6.17578L7.50391 8.4751L5.19629 10.7827C5.06348 10.9155 4.99707 11.076 4.99707 11.2642C4.99707 11.4523 5.06348 11.6156 5.19629 11.7539C5.3291 11.8867 5.48958 11.9531 5.67773 11.9531Z" fill="#3C3C43" fill-opacity="0.6"/>
</svg>
