<svg width="24" height="24" viewBox="0 0 24 24" fill="none" xmlns="http://www.w3.org/2000/svg">
<path fill-rule="evenodd" clip-rule="evenodd" d="M6.05336 11.9999C6.05336 8.97595 8.41069 5.97328 12.08 5.97328C15.0432 5.97328 16.5088 8.16635 17.1328 9.33328H15.28C15.1386 9.33328 15.0029 9.38947 14.9029 9.48949C14.8029 9.58951 14.7467 9.72517 14.7467 9.86662C14.7467 10.0081 14.8029 10.1437 14.9029 10.2437C15.0029 10.3438 15.1386 10.4 15.28 10.4H18.48C18.6215 10.4 18.7571 10.3438 18.8572 10.2437C18.9572 10.1437 19.0134 10.0081 19.0134 9.86662V6.66662C19.0134 6.52517 18.9572 6.38951 18.8572 6.28949C18.7571 6.18947 18.6215 6.13328 18.48 6.13328C18.3386 6.13328 18.2029 6.18947 18.1029 6.28949C18.0029 6.38951 17.9467 6.52517 17.9467 6.66662V8.60048C17.1958 7.27568 15.4571 4.90662 12.08 4.90662C7.74616 4.90662 4.98669 8.46395 4.98669 11.9999C4.98669 15.536 7.74616 19.0933 12.08 19.0933C14.1536 19.0933 15.8795 18.2719 17.1083 17.0218C17.7597 16.3563 18.2769 15.5715 18.6315 14.7104C18.6581 14.6456 18.6717 14.5762 18.6715 14.5061C18.6713 14.4361 18.6573 14.3668 18.6303 14.3022C18.6033 14.2375 18.5639 14.1788 18.5142 14.1295C18.4645 14.0801 18.4056 14.041 18.3408 14.0143C18.276 13.9877 18.2066 13.9741 18.1366 13.9743C18.0666 13.9745 17.9973 13.9885 17.9326 14.0155C17.868 14.0425 17.8093 14.082 17.7599 14.1317C17.7106 14.1813 17.6714 14.2402 17.6448 14.305C17.3427 15.0385 16.9024 15.7069 16.3478 16.2741C15.312 17.3301 13.856 18.0266 12.08 18.0266C8.41069 18.0266 6.05336 15.024 6.05336 11.9999Z" fill="white"/>
</svg>
