<svg width="150" height="151" viewBox="0 0 150 151" fill="none" xmlns="http://www.w3.org/2000/svg">
<path d="M73.0693 2.0893C73.0693 0.935412 74.0047 0 75.1586 0C76.3125 0 77.2479 0.935412 77.2479 2.0893V17.6744C77.2479 18.8283 76.3125 19.7637 75.1586 19.7637C74.0047 19.7637 73.0693 18.8283 73.0693 17.6744V2.0893Z" fill="#BAB05E"/>
<path d="M36.8453 12.5946C36.2684 11.5953 36.6108 10.3175 37.6101 9.74058C38.6094 9.16364 39.8872 9.50602 40.4641 10.5053L48.2566 24.0024C48.8336 25.0017 48.4912 26.2795 47.4919 26.8564C46.4926 27.4334 45.2148 27.091 44.6379 26.0917L36.8453 12.5946Z" fill="#BAB05E"/>
<path d="M10.5056 40.4639C9.50632 39.887 9.16394 38.6092 9.74088 37.6099C10.3178 36.6106 11.5956 36.2682 12.5949 36.8451L26.092 44.6377C27.0913 45.2146 27.4337 46.4924 26.8567 47.4917C26.2798 48.491 25.002 48.8334 24.0027 48.2564L10.5056 40.4639Z" fill="#BAB05E"/>
<path d="M2.0893 77.2476C0.935412 77.2476 0 76.3122 0 75.1583C0 74.0044 0.935412 73.069 2.0893 73.069H17.6744C18.8283 73.069 19.7637 74.0044 19.7637 75.1583C19.7637 76.3122 18.8283 77.2476 17.6744 77.2476H2.0893Z" fill="#BAB05E"/>
<path d="M12.9298 113.566C11.9305 114.143 10.6527 113.8 10.0757 112.801C9.49878 111.802 9.84116 110.524 10.8405 109.947L24.3379 102.154C25.3372 101.577 26.615 101.92 27.1919 102.919C27.7689 103.918 27.4265 105.196 26.4272 105.773L12.9298 113.566Z" fill="#BAB05E"/>
<path d="M40.4639 139.027C39.887 140.026 38.6092 140.369 37.6099 139.792C36.6106 139.215 36.2682 137.937 36.8451 136.938L44.6377 123.441C45.2146 122.441 46.4924 122.099 47.4917 122.676C48.491 123.253 48.8334 124.531 48.2564 125.53L40.4639 139.027Z" fill="#BAB05E"/>
<path d="M113.02 12.5946C113.597 11.5953 113.255 10.3175 112.255 9.74058C111.256 9.16364 109.978 9.50602 109.401 10.5053L101.609 24.0024C101.032 25.0017 101.374 26.2795 102.373 26.8564C103.373 27.4334 104.65 27.091 105.227 26.0917L113.02 12.5946Z" fill="#BAB05E"/>
<path d="M139.36 40.4639C140.359 39.887 140.701 38.6092 140.124 37.6099C139.547 36.6106 138.27 36.2682 137.27 36.8451L123.773 44.6377C122.774 45.2146 122.432 46.4924 123.009 47.4917C123.586 48.491 124.863 48.8334 125.863 48.2564L139.36 40.4639Z" fill="#BAB05E"/>
<path d="M147.776 77.2476C148.93 77.2476 149.865 76.3122 149.865 75.1583C149.865 74.0044 148.93 73.069 147.776 73.069H132.191C131.037 73.069 130.102 74.0044 130.102 75.1583C130.102 76.3122 131.037 77.2476 132.191 77.2476H147.776Z" fill="#BAB05E"/>
<path d="M136.936 113.566C137.935 114.143 139.213 113.8 139.79 112.801C140.367 111.802 140.024 110.524 139.025 109.947L125.527 102.154C124.528 101.577 123.25 101.92 122.673 102.919C122.096 103.918 122.439 105.196 123.438 105.773L136.936 113.566Z" fill="#BAB05E"/>
<path d="M109.401 139.027C109.978 140.026 111.256 140.369 112.255 139.792C113.255 139.215 113.597 137.937 113.02 136.938L105.228 123.441C104.651 122.441 103.373 122.099 102.374 122.676C101.374 123.253 101.032 124.531 101.609 125.53L109.401 139.027Z" fill="#BAB05E"/>
<path d="M77.2481 148.34C77.2481 149.494 76.3127 150.43 75.1588 150.43C74.005 150.43 73.0695 149.494 73.0695 148.34V132.755C73.0695 131.601 74.005 130.666 75.1588 130.666C76.3127 130.666 77.2481 131.601 77.2481 132.755V148.34Z" fill="#BAB05E"/>
</svg>
