<svg width="48" height="48" viewBox="0 0 48 48" fill="none" xmlns="http://www.w3.org/2000/svg">
<g filter="url(#filter0_i_5132_4770)">
<path fill-rule="evenodd" clip-rule="evenodd" d="M19.8201 3.41651C21.6239 3.05202 22.9211 5.11139 21.8133 6.58083C19.9969 8.99024 19 11.9169 19 15.0001C19 22.7321 25.268 29.0001 33 29.0001C36.0832 29.0001 39.01 28.0031 41.4189 26.1871C42.8883 25.0793 44.9477 26.3764 44.5833 28.1801C42.6189 37.903 34.0396 45.0001 24 45.0001C12.402 45.0001 3 35.5981 3 24.0001C3 13.9605 10.0971 5.3813 19.8201 3.41651Z" fill="url(#paint0_linear_5132_4770)"/>
</g>
<defs>
<filter id="filter0_i_5132_4770" x="3" y="3.37402" width="41.626" height="43.626" filterUnits="userSpaceOnUse" color-interpolation-filters="sRGB">
<feFlood flood-opacity="0" result="BackgroundImageFix"/>
<feBlend mode="normal" in="SourceGraphic" in2="BackgroundImageFix" result="shape"/>
<feColorMatrix in="SourceAlpha" type="matrix" values="0 0 0 0 0 0 0 0 0 0 0 0 0 0 0 0 0 0 127 0" result="hardAlpha"/>
<feOffset dy="2"/>
<feGaussianBlur stdDeviation="8"/>
<feComposite in2="hardAlpha" operator="arithmetic" k2="-1" k3="1"/>
<feColorMatrix type="matrix" values="0 0 0 0 1 0 0 0 0 1 0 0 0 0 1 0 0 0 1 0"/>
<feBlend mode="overlay" in2="shape" result="effect1_innerShadow_5132_4770"/>
</filter>
<linearGradient id="paint0_linear_5132_4770" x1="23.8129" y1="3.37402" x2="23.8129" y2="45.0001" gradientUnits="userSpaceOnUse">
<stop stop-color="#FFD358"/>
<stop offset="1" stop-color="#FA6C21"/>
</linearGradient>
</defs>
</svg>
