<svg width="250" height="251" viewBox="0 0 250 251" fill="none" xmlns="http://www.w3.org/2000/svg">
<g filter="url(#filter0_f_3782_2644)">
<ellipse cx="125" cy="125.5" rx="25" ry="25.5" fill="#FFC701" fill-opacity="0.35"/>
</g>
<path d="M125 102.672C137.784 102.672 148.18 113.248 148.18 126.336C148.18 139.424 137.784 150 125 150C112.217 150 101.82 139.424 101.82 126.336C101.82 113.248 112.217 102.672 125 102.672Z" fill="url(#paint0_linear_3782_2644)" stroke="url(#paint1_linear_3782_2644)" stroke-width="2"/>
<mask id="mask0_3782_2644" style="mask-type:alpha" maskUnits="userSpaceOnUse" x="100" y="115" width="50" height="36">
<path d="M149.18 126.336C149.18 139.958 138.354 151 125 151C111.645 151 100.82 139.958 100.82 126.336C100.82 112.715 109.801 115.885 123.156 115.885C136.51 115.885 149.18 112.715 149.18 126.336Z" fill="url(#paint2_linear_3782_2644)"/>
</mask>
<g mask="url(#mask0_3782_2644)">
<g filter="url(#filter1_f_3782_2644)">
<path fill-rule="evenodd" clip-rule="evenodd" d="M161.885 171.484C161.885 181.411 153.995 189.459 144.262 189.459C144.194 189.459 144.126 189.459 144.058 189.458V189.459H82.1722L82.1728 189.458C82.1043 189.459 82.0358 189.459 81.9672 189.459C72.2343 189.459 64.3442 181.412 64.3442 171.484C64.3442 161.556 72.2343 153.509 81.9672 153.509C90.3566 153.509 97.3768 159.488 99.155 167.497L105.123 159.779L123.771 153.508H144.058V153.509C144.126 153.509 144.194 153.508 144.262 153.508C153.995 153.508 161.885 161.556 161.885 171.484Z" fill="#E18700"/>
</g>
</g>
<defs>
<filter id="filter0_f_3782_2644" x="0" y="0" width="250" height="251" filterUnits="userSpaceOnUse" color-interpolation-filters="sRGB">
<feFlood flood-opacity="0" result="BackgroundImageFix"/>
<feBlend mode="normal" in="SourceGraphic" in2="BackgroundImageFix" result="shape"/>
<feGaussianBlur stdDeviation="50" result="effect1_foregroundBlur_3782_2644"/>
</filter>
<filter id="filter1_f_3782_2644" x="50.3442" y="139.508" width="125.541" height="63.9512" filterUnits="userSpaceOnUse" color-interpolation-filters="sRGB">
<feFlood flood-opacity="0" result="BackgroundImageFix"/>
<feBlend mode="normal" in="SourceGraphic" in2="BackgroundImageFix" result="shape"/>
<feGaussianBlur stdDeviation="7" result="effect1_foregroundBlur_3782_2644"/>
</filter>
<linearGradient id="paint0_linear_3782_2644" x1="125" y1="101.672" x2="125" y2="151" gradientUnits="userSpaceOnUse">
<stop stop-color="#FFE600"/>
<stop offset="1" stop-color="#FF7A00"/>
</linearGradient>
<linearGradient id="paint1_linear_3782_2644" x1="125" y1="101.672" x2="125" y2="151" gradientUnits="userSpaceOnUse">
<stop stop-color="white"/>
<stop offset="1" stop-color="white" stop-opacity="0"/>
</linearGradient>
<linearGradient id="paint2_linear_3782_2644" x1="125" y1="101.672" x2="125" y2="151" gradientUnits="userSpaceOnUse">
<stop stop-color="#FFD600"/>
<stop offset="1" stop-color="#FF7A00"/>
</linearGradient>
</defs>
</svg>
